HIERARCHY
ROOT root     
{
	OFFSET 0.0000 0.0000 0.0000
	CHANNELS 6 Xposition Yposition Zposition Zrotation Yrotation Xrotation
	JOINT pelvis   
	{
		OFFSET 0.0000 0.0000 0.0000
		CHANNELS 3 Zrotation Yrotation Xrotation
		JOINT thorax   
		{
			OFFSET 0.0000 23.0750 -5.0000
			CHANNELS 3 Zrotation Yrotation Xrotation
			JOINT rclavicle
			{
				OFFSET 0.0000 28.0009 0.0000
				CHANNELS 3 Zrotation Yrotation Xrotation
				JOINT rhumerus 
				{
					OFFSET -18.5725 5.5939 0.0000
					CHANNELS 3 Zrotation Yrotation Xrotation
					JOINT rradius  
					{
						OFFSET -24.8459 0.0000 0.0000
						CHANNELS 3 Zrotation Yrotation Xrotation
						JOINT rhand    
						{
							OFFSET -24.5477 0.0000 0.0000
							CHANNELS 3 Zrotation Yrotation Xrotation
							End Site
							{
								OFFSET -8.1826 0.0000 0.0000
							}
						}
					}
				}
			}
			JOINT lclavicle
			{
				OFFSET 0.0000 28.0009 0.0000
				CHANNELS 3 Zrotation Yrotation Xrotation
				JOINT lhumerus 
				{
					OFFSET 18.5725 5.5939 0.0000
					CHANNELS 3 Zrotation Yrotation Xrotation
					JOINT lradius  
					{
						OFFSET 24.8459 0.0000 0.0000
						CHANNELS 3 Zrotation Yrotation Xrotation
						JOINT lhand    
						{
							OFFSET 24.5477 0.0000 0.0000
							CHANNELS 3 Zrotation Yrotation Xrotation
							End Site
							{
								OFFSET 8.1826 0.0000 0.0000
							}
						}
					}
				}
			}
			JOINT head     
			{
				OFFSET 0.0000 35.2030 0.0000
				CHANNELS 3 Zrotation Yrotation Xrotation
				End Site
				{
					OFFSET 0.0000 11.7343 0.0000
				}
			}
		}
		JOINT rfemur   
		{
			OFFSET -8.2817 0.0000 0.0000
			CHANNELS 3 Zrotation Yrotation Xrotation
			JOINT rtibia   
			{
				OFFSET 0.0000 -43.3627 0.0000
				CHANNELS 3 Zrotation Yrotation Xrotation
				JOINT rfoot    
				{
					OFFSET 0.0000 -38.2947 0.0000
					CHANNELS 3 Zrotation Yrotation Xrotation
					JOINT rtoes    
					{
						OFFSET 0.0000 0.0000 16.6054
						CHANNELS 3 Zrotation Yrotation Xrotation
						End Site
						{
							OFFSET 0.0000 0.0000 5.5351
						}
					}
				}
			}
		}
		JOINT lfemur   
		{
			OFFSET 8.2817 0.0000 0.0000
			CHANNELS 3 Zrotation Yrotation Xrotation
			JOINT ltibia   
			{
				OFFSET 0.0000 -43.3627 0.0000
				CHANNELS 3 Zrotation Yrotation Xrotation
				JOINT lfoot    
				{
					OFFSET 0.0000 -38.2947 0.0000
					CHANNELS 3 Zrotation Yrotation Xrotation
					JOINT ltoes    
					{
						OFFSET 0.0000 0.0000 16.6054
						CHANNELS 3 Zrotation Yrotation Xrotation
						End Site
						{
							OFFSET 0.0000 0.0000 5.5351
						}
					}
				}
			}
		}
	}
}
MOTION
Frames: 15
Frame Time: .0333333
-105.29 79.741 -10.618 -45.0912 83.6013 -30.5273 0 -0 0 -5.29143 -3.18328 22.5922 21.7922 -7.26462 4.3302e-05 59.869 -5.3774 8.3918 -0 51.6192 -0 -0.544513 6.49154 -0.0309008 -20.2911 11.5967 -1.23201e-05 -50.3707 5.33124 1.31237 -2.34474e-06 -86.1995 2.19376e-06 3.78151 4.6137 0.152395 -0.257603 6.18769 -16.641 8.83615 -12.0579 -47.69 -0 -0 67.132 7.88184e-06 -8.87097 -3.22254 0.502688 1.55936e-06 -26.3563 -2.55495 12.6379 -31.2137 -0 -0 53.9995 -9.87635e-05 15.0126 -21.277 -5.55839 -1.19439e-05 -21.2288 
-104.72 79.796 -10.598 -45.4462 83.6213 -30.7714 0 -0 0 -5.13976 -3.47659 22.6359 21.8314 -7.37461 -2.55018e-05 59.7777 -5.70784 8.196 -0 50.9652 -0 -0.464308 6.53782 -0.0265004 -20.1328 11.5749 -6.56956e-05 -50.1212 5.07866 1.22693 4.66913e-06 -86.8805 -4.93064e-06 3.78426 4.59832 0.151999 -0.190211 6.2591 -16.6021 9.15823 -11.6422 -48.6514 -0 -0 65.5866 -6.94158e-06 -8.79004 -3.04792 0.471105 1.73395e-06 -27.0882 -2.50511 12.7841 -30.7609 -0 -0 53.6852 -5.30086e-05 14.9193 -21.3063 -5.52969 -2.12132e-05 -21.8098 
-104.14 79.842 -10.573 -45.843 83.6644 -31.0548 0 -0 0 -4.99972 -3.77512 22.6699 21.8797 -7.50553 -2.22867e-05 59.6751 -6.04843 7.99994 -4.02568e-07 50.3573 -8.56338e-07 -0.3856 6.57045 -0.0220999 -19.9702 11.5677 3.26536e-05 -49.8584 4.8283 1.1567 -7.28406e-06 -87.5812 6.98217e-06 3.783 4.58654 0.151596 -0.0966784 6.31225 -16.5513 9.45176 -11.2588 -49.5455 -0 -0 63.9414 1.135e-06 -8.6948 -2.7901 0.426501 -1.30314e-07 -27.8892 -2.46215 12.9233 -30.3104 -0 -0 53.3843 2.20256e-05 14.8174 -21.3203 -5.49378 -3.07426e-06 -22.429 
-103.55 79.879 -10.544 -46.244 83.7421 -31.3465 0 -0 0 -4.87554 -4.0782 22.698 21.9374 -7.66531 7.19646e-05 59.563 -6.38917 7.81283 -3.93615e-07 49.788 -8.48207e-07 -0.313695 6.58623 -0.0179996 -19.8092 11.5774 3.17019e-05 -49.5733 4.57321 1.10617 -9.87342e-06 -88.2676 9.58106e-06 3.77636 4.58355 0.151196 0.0222875 6.34905 -16.4938 9.71488 -10.9166 -50.3715 -0 -0 62.2128 2.90761e-06 -8.56935 -2.46809 0.371797 1.25849e-06 -28.6342 -2.42867 13.0535 -29.8572 -0 -0 53.0956 -5.43166e-05 14.7033 -21.3224 -5.45034 9.5684e-07 -23.0655 
-102.94 79.909 -10.51 -46.7223 83.841 -31.7161 0 -0 0 -4.76289 -4.38409 22.7236 22.003 -7.83578 -1.89492e-05 59.45 -6.75223 7.60913 -0 49.2705 -0 -0.243393 6.58393 -0.0139988 -19.6436 11.5939 6.09082e-05 -49.2777 4.32062 1.06979 -8.54349e-06 -88.9908 8.3926e-06 3.75986 4.58068 0.150403 0.163285 6.3702 -16.4315 9.95053 -10.613 -51.1315 -0 -0 60.4104 -6.34768e-08 -8.4044 -2.08875 0.308501 1.27928e-06 -29.3125 -2.40016 13.1773 -29.4034 -0 -0 52.8236 0.000102916 14.5714 -21.3121 -5.39724 -2.22459e-05 -23.7349 
-102.33 79.931 -10.47 -47.2614 83.9731 -32.1519 0 -0 0 -4.66015 -4.6913 22.7475 22.0759 -8.01238 -1.44283e-05 59.3383 -7.14078 7.38095 -0 48.808 -0 -0.172496 6.56211 -0.00989975 -19.4766 11.6173 1.16555e-05 -48.9691 4.0671 1.04777 2.74789e-05 -89.7079 -2.76344e-05 3.73214 4.57694 0.149201 0.321817 6.37813 -16.3709 10.1601 -10.3473 -51.8323 -0 -0 58.5484 6.25406e-06 -8.18562 -1.66751 0.239801 -2.31727e-07 -29.8873 -2.37496 13.2977 -28.9479 -0 -0 52.5705 4.04506e-05 14.4193 -21.2908 -5.33358 -7.3224e-06 -24.4389 
-101.7 79.946 -10.427 -47.8528 84.1234 -32.6429 0 -0 0 -4.57057 -4.99937 22.7754 22.1538 -8.22813 -6.36882e-05 59.2188 -7.50704 7.18066 -3.72417e-07 48.3768 -8.29108e-07 -0.119297 6.52505 -0.00680031 -19.3204 11.6546 -3.83286e-05 -48.6325 3.80449 1.04293 -180 -89.5552 180 3.6956 4.58422 0.148001 0.492495 6.37757 -16.3218 10.3461 -10.1282 -52.4796 -0 -0 56.6474 4.35797e-07 -7.89322 -1.23091 0.170603 6.10406e-07 -30.2895 -2.35499 13.4117 -28.4891 -0 -0 52.3344 2.09144e-05 14.2446 -21.2622 -5.26016 -3.47681e-05 -25.1467 
-101.07 79.954 -10.377 -48.558 84.3062 -33.2538 0 -0 0 -4.48133 -5.30481 22.8057 22.2327 -8.43653 2.55183e-05 59.1082 -7.90595 6.94258 -0 48.0041 -0 -0.0613994 6.47239 -0.00349994 -19.1647 11.6927 -4.49915e-05 -48.2936 3.54488 1.04494 -180 -88.9191 180 3.64748 4.58323 0.146006 0.669125 6.36884 -16.2891 10.5156 -9.93886 -53.0764 -0 -0 54.7088 3.87866e-07 -7.53026 -0.777902 0.102801 9.73868e-07 -30.6806 -2.32812 13.5272 -28.0329 -0 -0 52.1211 -7.50299e-05 14.0429 -21.2231 -5.17368 -5.16453e-05 -25.9231 
-100.42 79.956 -10.321 -49.3971 84.4992 -33.999 0 -0 0 -4.39353 -5.60714 22.8401 22.3145 -8.65942 -7.03765e-05 58.9986 -8.30158 6.706 -3.62306e-07 47.6723 -8.20066e-07 -0.0106998 6.41007 -0.000600007 -19.0207 11.7334 -5.66086e-05 -47.9385 3.28989 1.05097 -180 -88.2158 180 3.59169 4.58367 0.143799 0.846628 6.35646 -16.277 10.6706 -9.78011 -53.6259 -0 -0 52.744 -5.05414e-07 -7.08627 -0.335999 0.0418006 7.44329e-08 -31.0598 -2.29411 13.6421 -27.5776 -0 -0 51.9301 1.3764e-05 13.8128 -21.1769 -5.07546 5.17037e-06 -26.741 
-99.765 79.951 -10.257 -50.3848 84.7083 -34.8953 0 -0 0 -4.29981 -5.90461 22.8771 22.3906 -8.89127 6.09316e-05 58.8939 -8.69421 6.47085 -3.58156e-07 47.3753 -8.16383e-07 0.0331996 6.34383 0.00179998 -18.8846 11.7755 -8.44075e-05 -47.5806 3.04446 1.05664 180 -87.539 180 3.52982 4.58054 0.141198 1.02065 6.34119 -16.2895 10.8163 -9.64105 -54.1281 -0 -0 50.7561 -3.37115e-08 -6.56914 0.0836992 -0.00959993 3.86254e-08 -31.5543 -2.24569 13.7612 -27.1287 -0 -0 51.7628 -2.34095e-05 13.5544 -21.1192 -4.96454 3.1515e-05 -27.6382 
-99.102 79.941 -10.185 -51.58 84.9171 -35.9973 0 -0 0 -4.19639 -6.19563 22.9177 22.4623 -9.12497 -4.5995e-06 58.7966 -9.08752 6.23309 -0 47.1136 -0 0.0742003 6.27795 0.00409997 -18.7545 11.8142 5.95655e-05 -47.2269 2.81556 1.05768 -180 -86.8275 180 3.46487 4.57214 0.138399 1.18892 6.32406 -16.3256 10.952 -9.5109 -54.5753 -0 -0 48.7428 7.01048e-07 -5.99102 0.466091 -0.0489006 -4.00773e-07 -32.2485 -2.17698 13.8825 -26.6846 -0 -0 51.6211 -1.08081e-05 13.2664 -21.0501 -4.84065 1.86899e-06 -28.6285 
-98.429 79.924 -10.105 -52.9778 85.1323 -37.3027 0 -0 0 -4.08354 -6.47977 22.959 22.5251 -9.37211 4.7597e-05 58.7026 -9.4609 6.01916 -0 46.8741 -0 0.104599 6.22001 0.00569989 -18.6325 11.8506 4.55558e-05 -46.8789 2.60939 1.05221 -180 -86.1359 180 3.40002 4.56155 0.135499 1.35114 6.30589 -16.3831 11.0741 -9.38321 -54.9591 -0 -0 46.7064 -1.37563e-07 -5.36808 0.794399 -0.0745999 7.26407e-07 -33.1737 -2.08755 14.0044 -26.2465 -0 -0 51.5053 -7.7968e-05 12.9538 -20.967 -4.70496 1.3005e-05 -29.7115 
-97.748 79.901 -10.015 -54.6523 85.3322 -38.8819 0 -0 0 -3.95302 -6.75549 22.9964 22.581 -9.58436 -1.82664e-05 58.6236 -9.87624 5.75707 -0 46.6877 -0 0.1542 6.16523 0.00829986 -18.5058 11.88 -0.000106594 -46.5587 2.43135 1.04082 -180 -85.4503 180 3.33666 4.54063 0.1323 1.50743 6.28322 -16.4513 11.1776 -9.23707 -55.2656 -0 -0 44.6363 1.72754e-07 -4.73854 1.0717 -0.0888012 1.95665e-07 -34.4092 -1.9681 14.1292 -25.8171 -0 -0 51.4204 1.75951e-05 12.6152 -20.8625 -4.55702 -4.50288e-05 -30.934 
-97.055 79.87 -9.9153 -56.5719 85.5351 -40.7082 0 -0 0 -3.81578 -7.02402 23.0297 22.625 -9.80613 2.56169e-05 58.5504 -10.273 5.52355 -0 46.5159 -0 0.196404 6.12427 0.0105002 -18.3771 11.9057 3.05244e-05 -46.2596 2.28369 1.02616 -180 -84.7693 180 3.27801 4.5204 0.129401 1.66168 6.2562 -16.5236 11.25 -9.07705 -55.4844 -0 -0 42.5461 2.4952e-06 -4.12415 1.28325 -0.0924988 -2.76269e-07 -35.8325 -1.82746 14.2484 -25.3888 -0 -0 51.3627 8.32244e-05 12.2587 -20.7396 -4.40001 -1.17594e-05 -32.2454 
-96.35 79.829 -9.8076 -58.7452 85.748 -42.7933 0 -0 0 -3.67415 -7.28559 23.0567 22.6576 -10.0254 -3.08115e-05 58.488 -10.6693 5.30067 -3.4442e-07 46.366 -8.04248e-07 0.239797 6.09636 0.0127998 -18.2419 11.9268 -4.69774e-06 -45.9904 2.16734 1.01338 180 -84.1029 180 3.22439 4.50063 0.126699 1.8164 6.22164 -16.589 11.2796 -8.89466 -55.608 -0 -0 40.4477 -1.05841e-06 -3.56546 1.43759 -0.0896012 -5.47014e-07 -37.3528 -1.66649 14.3578 -24.9591 -0 -0 51.3336 8.18782e-05 11.8883 -20.5975 -4.2357 -1.54332e-05 -33.6489 
